<?xml version="1.0" standalone="no"?><!DOCTYPE svg PUBLIC "-//W3C//DTD SVG 1.1//EN" "http://www.w3.org/Graphics/SVG/1.1/DTD/svg11.dtd"><svg t="1590849569104" class="icon" viewBox="0 0 1024 1024" version="1.1" xmlns="http://www.w3.org/2000/svg" p-id="858" width="32" height="32" xmlns:xlink="http://www.w3.org/1999/xlink"><defs><style type="text/css"></style></defs><path d="M508.108353 246.179522a9.335433 9.335433 0 0 0-0.022677 0 9.335433 9.335433 0 0 0-0.045355 0 9.335433 9.335433 0 0 0-9.222047 9.411023 9.335433 9.335433 0 0 0 7.298268 9.04063l1.882205 255.507395-54.066141-249.804088a9.335433 9.335433 0 0 0 5.143937-10.420158 9.335433 9.335433 0 0 0-11.100472-7.150866 9.335433 9.335433 0 0 0-0.045354 0.007559 9.335433 9.335433 0 0 0-7.105512 11.092914 9.335433 9.335433 0 0 0 8.995275 7.362519l56.560629 261.354324-115.377635-156.374169a6.867401 6.867401 0 0 0 0.302362-8.541732 6.867401 6.867401 0 0 0-9.6-1.451339 6.867401 6.867401 0 0 0-0.030236 0.018898 6.867401 6.867401 0 0 0-1.421102 9.584882 6.867401 6.867401 0 0 0 8.254488 2.229921l115.366296 156.351492-234.119049-129.788973a9.335433 9.335433 0 0 0-4.448504-10.733858 9.335433 9.335433 0 0 0-12.691653 3.635905 9.335433 9.335433 0 0 0-0.026457 0.037796 9.335433 9.335433 0 0 0 3.666142 12.657637 9.335433 9.335433 0 0 0 11.459527-1.912441l222.905191 123.571651-243.031175-76.996534a9.335433 9.335433 0 0 0-6.489449-9.641574 9.335433 9.335433 0 0 0-11.720314 6.085039 9.335433 9.335433 0 0 0-0.015118 0.037795 9.335433 9.335433 0 0 0 6.096378 11.67874 9.335433 9.335433 0 0 0 10.858582-4.146142l243.582986 77.170392-254.286608-25.776377a9.335433 9.335433 0 0 0-8.322519-8.114646 9.335433 9.335433 0 0 0-10.231181 8.348976 9.335433 9.335433 0 0 0-0.00378 0.045355 9.335433 9.335433 0 0 0 8.352756 10.185826 9.335433 9.335433 0 0 0 9.781417-6.274015l266.524718 27.012282-184.803775 61.553385a6.867401 6.867401 0 0 0-8.031496-2.932914 6.867401 6.867401 0 0 0-4.346457 8.685355 6.867401 6.867401 0 0 0 0.011339 0.037795v-0.00378a6.867401 6.867401 0 0 0 8.674016 4.312441 6.867401 6.867401 0 0 0 4.671496-7.162204l183.953381-61.2737-195.439365 182.233697a9.335433 9.335433 0 0 0-11.584252 0.914645 9.335433 9.335433 0 0 0-0.464882 13.19811 9.335433 9.335433 0 0 0 0.030236 0.030236 9.335433 9.335433 0 0 0 13.167874 0.430867 9.335433 9.335433 0 0 0 1.723464-11.497323l186.406295-173.801571-148.327555 207.341098a9.335433 9.335433 0 0 0-11.176063 3.189921 9.335433 9.335433 0 0 0 2.16189 13.028031 9.335433 9.335433 0 0 0 0.037795 0.030236v-0.003779a9.335433 9.335433 0 0 0 12.990236-2.192126 9.335433 9.335433 0 0 0-0.589606-11.603149l148.660153-207.813539-103.090391 233.869601a9.335433 9.335433 0 0 0-10.287874 5.404724 9.335433 9.335433 0 0 0 4.777323 12.31748 9.335433 9.335433 0 0 0 0.041575 0.015118 9.335433 9.335433 0 0 0 12.268346-4.79622 9.335433 9.335433 0 0 0-2.948031-11.240315l108.105824-245.249757 1.43622 195.084089a6.867401 6.867401 0 0 0-5.272441 6.731339 6.867401 6.867401 0 0 0 6.920315 6.818267 6.867401 6.867401 0 0 0 0.034016 0.00378 6.867401 6.867401 0 0 0 6.784252-6.920315 6.867401 6.867401 0 0 0-5.366929-6.651968l-1.428662-193.96157 112.86047 242.071175a9.335433 9.335433 0 0 0-2.709921 11.300787 9.335433 9.335433 0 0 0 12.408189 4.520315 9.335433 9.335433 0 0 0 0.041574-0.015118v-0.00756a9.335433 9.335433 0 0 0 4.474961-12.385511 9.335433 9.335433 0 0 0-10.393701-5.193071l-107.693855-230.978262 151.351177 205.126294a9.335433 9.335433 0 0 0-0.415748 11.614488 9.335433 9.335433 0 0 0 13.054488 1.972914 9.335433 9.335433 0 0 0 0.037795-0.030237 9.335433 9.335433 0 0 0 1.931339-13.028031 9.335433 9.335433 0 0 0-11.221417-3.027401l-151.698894-205.598735 190.563775 170.309287a9.335433 9.335433 0 0 0 1.965354 11.459527 9.335433 9.335433 0 0 0 13.186771-0.740787 9.335433 9.335433 0 0 0 0.030236-0.037796 9.335433 9.335433 0 0 0-0.771023-13.148976 9.335433 9.335433 0 0 0-11.603149-0.668976l-199.540153-178.333224 185.737318 58.839684a6.867401 6.867401 0 0 0 4.773543 7.094173 6.867401 6.867401 0 0 0 8.617323-4.471181 6.867401 6.867401 0 0 0 0.018898-0.037796h-0.00378a6.867401 6.867401 0 0 0-4.486299-8.587086 6.867401 6.867401 0 0 0-7.986141 3.050079l-185.351807-58.718739 265.492907-32.579527a9.335433 9.335433 0 0 0 9.909921 6.066142 9.335433 9.335433 0 0 0 8.125984-10.405039 9.335433 9.335433 0 0 0 0-0.045355 9.335433 9.335433 0 0 0-10.40126-8.088188 9.335433 9.335433 0 0 0-8.148661 8.288503l-252.959994 31.048818 241.863302-80.560628a9.335433 9.335433 0 0 0 10.919054 3.987402 9.335433 9.335433 0 0 0 5.907402-11.811023 9.335433 9.335433 0 0 0-0.015118-0.045355 9.335433 9.335433 0 0 0-11.792126-5.862047 9.335433 9.335433 0 0 0-6.349606 9.736063l-242.418892 80.745825 220.868026-128.61354a9.335433 9.335433 0 0 0 11.504882 1.67433 9.335433 9.335433 0 0 0 3.367559-12.771023 9.335433 9.335433 0 0 0-0.022677-0.037795 9.335433 9.335433 0 0 0-12.744567-3.333544 9.335433 9.335433 0 0 0-4.221732 10.828347l-230.940467 134.475587 113.083462-158.082516a6.867401 6.867401 0 0 0 8.224252-2.343307 6.867401 6.867401 0 0 0-1.587402-9.584882 6.867401 6.867401 0 0 0-0.037795-0.018897h0.003779a6.867401 6.867401 0 0 0-9.554645 1.610078 6.867401 6.867401 0 0 0 0.434646 8.534173l-113.245982 158.309288 51.121889-262.926608a9.335433 9.335433 0 0 0 8.836535-7.547716 9.335433 9.335433 0 0 0-7.385197-10.949291 9.335433 9.335433 0 0 0-0.045354-0.011339 9.335433 9.335433 0 0 0-10.900157 7.392756 9.335433 9.335433 0 0 0 5.35937 10.310551l-48.642519 250.178261-1.874646-254.929127a9.335433 9.335433 0 0 0 7.165985-9.146457 9.335433 9.335433 0 0 0-9.384567-9.27118z" p-id="859" fill="#2c2c2c"></path><path d="M482.895125 47.259211c-4.047874 0-8.178897 0.381732-12.336378 1.12252-16.63748 2.96315-34.07244 11.342362-50.399998 23.145826-32.141102 23.232755-60.132282 59.769447-66.54992 97.164092-20.16 17.888503-33.312755 50.759054-37.107401 92.379211a180.377948 180.377948 0 0 0-35.210077-4.611024 160.667713 160.667713 0 0 0-22.31811 0.857953c-26.985826 2.970709-49.481574 13.020472-62.347085 28.939842-35.697637-11.074015-76.720628 2.777953-106.70362 25.35307-15.458267 11.640945-28.066771 25.625196-35.463306 40.278424-6.689764 13.254803-8.738268 27.341102-4.267086 40.138582-11.663622 8.492598-18.379842 21.694488-20.496378 36.925983-2.324409 16.739527 0.260787 35.905511 6.440315 55.082834 12.162519 37.74992 38.263936 75.673699 71.848817 93.331651 10.786771 24.695432 37.976692 47.357479 76.376691 63.82488-10.609134 17.642834-17.703307 36.030235-21.335432 53.548345-5.514331 26.581417-2.910236 51.091652 8.250708 68.246928-21.558425 30.531023-21.063307 73.82551-8.855433 109.319052 6.289134 18.296692 15.688819 34.601574 27.341102 46.166928 10.537323 10.457952 23.308346 16.758425 36.861731 16.463622 4.471181 13.719685 14.951811 24.181417 28.784881 30.901416 15.201259 7.381417 34.23118 10.851023 54.379842 10.900158 39.662361 0.098268 83.792124-13.009134 110.966926-39.496062 26.815747-2.630551 56.768503-21.482834 84.298581-52.913385 13.500472 15.541417 28.799999 27.972283 44.333857 36.842834 23.576692 13.455118 47.686298 18.549921 67.453227 13.235905 22.374803 29.941417 63.700156 42.848503 101.227084 42.209763 19.351181-0.328819 37.768818-4.233071 52.369132-11.742992 13.201889-6.791811 23.130708-16.985196 27.042519-29.967873 14.426456-0.011339 27.617007-6.746457 38.286613-17.824252 11.716535-12.173858 20.893228-29.200629 27.167244-48.347715 12.347716-37.693227 13.523149-83.708974-3.269291-117.73606 5.794016-26.31685-2.887559-60.634959-24.275905-96.529132 18.95811-8.039055 35.508661-18.746456 48.744565-30.784251 20.088188-18.266456 32.39055-39.620786 33.43748-60.064251 35.383936-12.030236 60.430865-47.342361 71.417951-83.225194 5.665512-18.504566 7.642205-37.224566 5.011653-53.43118-2.381102-14.653228-8.999055-27.250393-20.141102-34.975747 4.452283-13.727244 2.116535-28.361574-5.125039-41.930078-7.955905-14.906456-21.308976-28.894487-37.583621-40.777322-32.027716-23.387716-75.42803-38.717479-112.977635-33.267401-14.275275-8.379212-33.021731-12.585826-54.901416-12.351495-13.742362 0.151181-28.679054 2.018268-44.417007 5.601259-1.787716-20.511496-6.852283-39.560314-14.211023-55.865195-11.164724-24.748346-27.6737-43.041259-46.79055-50.358424-0.502677-37.371968-26.350865-72.102045-57.085983-93.641573-15.843779-11.104252-33.03307-18.769133-49.262361-21.278739-14.668346-2.267716-28.697952 0.139843-39.488503 8.345196-8.473701-6.149291-18.428976-9.203149-29.121259-9.206929z m-0.049134 10.329449c10.045984-0.056693 18.776692 2.785512 25.810393 9.014173l3.556536 3.148346 3.450708-3.27685c8.250708-7.831181 20.122204-10.287874 34.253858-8.103307 14.131653 2.184567 30.115275 9.169134 44.893227 19.528819 29.555905 20.711811 53.869605 54.685983 52.875589 88.304879l-0.120945 3.968504 3.802205 1.148977c16.376693 4.951181 32.79118 21.894803 43.823621 46.344565 6.565039 14.55496 11.217638 31.67244 13.077165 50.15433-0.120945 1.001575-0.030236 2.116535 0.294803 3.257952l0.064252 0.72567 0.24189 0.173858c1.269921 3.212598 4.508976 6.455433 10.609133 7.857638 15.707716-3.617008 30.481889-5.404724 43.838739-5.537008 21.305196-0.204094 39.000944 3.813543 51.106771 11.395275l1.662992 1.03937 1.927559-0.31748c33.864566-5.552126 76.399368 8.897008 107.013541 31.256692 15.307086 11.176063 27.609448 24.279684 34.54866 37.281259 6.942992 13.001574 8.605984 25.485354 3.605669 36.971338l-1.893543 4.357795 4.180158 2.267716c9.99685 5.427401 15.99874 15.960944 18.289133 30.0737 2.290394 14.112756 0.597165 31.479684-4.686614 48.733227-10.567559 34.514645-35.368818 68.122203-67.649762 77.567243l-3.817323 1.11874 0.08315 3.968504c0.351496 17.109921-10.688504 37.954015-30.534803 55.997479-12.661417 11.512441-28.79244 21.845669-47.334802 29.518109a18.481889 18.481889 0 0 0-0.96 0.997795c-2.777953 2.362205-4.818898 6.527244-3.325984 11.799685 21.531968 35.879054 29.404724 69.562203 23.765669 92.107084l-0.48 1.901103 0.899527 1.742362c15.745511 30.489448 15.155905 75.409132 3.356221 111.431808-5.903622 18.013228-14.55874 33.758739-24.778582 44.375432-10.219842 10.620472-21.588661 16.062992-34.053543 14.853543l-4.731968-0.453543-0.869292 4.679055c-2.067402 11.183622-10.231181 20.148661-22.94929 26.691023-12.71433 6.538583-29.75244 10.280315-47.795905 10.590236-36.086928 0.616063-75.719053-12.585826-94.677163-40.365354l-2.241259-3.27685-3.749292 1.300158c-16.161259 5.616378-39.397794 1.557165-62.691022-11.739213-14.864882-8.485039-29.67307-20.63244-42.697322-35.897952a24.366614 24.366614 0 0 0-1.209448-0.517795c-2.789291-1.802835-7.067716-2.381102-12.287244 0.40063-27.469606 31.562834-57.070865 49.466455-80.254486 51.065196l-1.957796 0.132283-1.375748 1.390866c-24.132283 24.39685-67.037479 37.719684-104.946139 37.628976-18.95433-0.045354-36.608503-3.416693-49.863306-9.853228-13.258582-6.440315-21.947716-15.571653-24.653857-27.802205l-1.024252-4.63748-4.71685 0.616063c-11.27811 1.485354-22.325669-3.507401-32.4737-13.579842-10.151811-10.072441-18.973228-25.107401-24.842834-42.175747-11.739212-34.129133-11.433071-75.90425 9.131338-102.519682l2.426457-3.144567-2.4-3.159685c-10.337008-13.636535-13.655433-36.994015-8.209134-63.257951 3.477165-16.754645 10.454173-34.594015 20.946141-51.696377 0.737008-5.896063-0.888189-9.788976-3.046299-11.667401a15.382677 15.382677 0 0 0-1.009134-1.209449c-38.505826-16.369133-64.682833-38.985826-73.368187-60.54803l-0.733228-1.814173-1.749922-0.88063c-30.659527-15.412913-56.583306-52.100786-68.212911-88.183935-5.812913-18.039685-8.057953-35.867716-6.028347-50.46803 2.025827-14.596535 8.020157-25.67811 18.818268-32.031496l4.097007-2.411338-2.052283-4.293543c-4.898268-10.265197-3.564094-22.31811 2.88-35.085354 6.444094-12.763464 18.024566-25.806614 32.439684-36.661416 28.837795-21.709606 68.655116-34.325668 100.319998-22.994645l3.741732 1.341732 2.267716-3.261732c9.773858-14.040945 30.958109-24.419527 57.618897-27.35622a149.691965 149.691965 0 0 1 20.862991-0.793701c11.191181 0.340157 22.915275 1.878425 34.779212 4.735748 0.514016 0.102047 1.092283 0.08315 1.700787-0.015118 3.363779 0.113386 7.237795-1.889764 9.290079-7.808504 3.666142-41.684408 17.091023-73.572282 34.911495-88.493856l1.504252-1.258583 0.294803-1.935118c5.185512-33.917479 32.061731-69.913699 62.78551-92.122202 15.363779-11.104252 31.623306-18.750236 46.132913-21.331653a62.022046 62.022046 0 0 1 10.469291-1.016693z" p-id="860" fill="#2c2c2c"></path></svg>